<?xml version="1.0" encoding="UTF-8"?>
<svg id="_Слой_2" data-name="Слой 2" xmlns="http://www.w3.org/2000/svg" viewBox="0 0 31.88 31.92">
  <defs>
    <style>
      .cls-1 {
        fill: #fff;
      }

      .cls-1, .cls-2 {
        stroke-width: 0px;
      }

      .cls-2 {
        fill: #0488db;
      }
    </style>
  </defs>
  <g id="_Слой_1-2" data-name="Слой 1">
    <g>
      <rect class="cls-1" x="0" y="0" width="31.88" height="31.92" rx="15.94" ry="15.94"/>
      <g>
        <path class="cls-2" d="M15.94,26.51c-.33,0-.64-.18-.81-.46l-1.03-1.74c-2.11-3.57-4.1-6.94-4.79-8.31-.5-1.02-.74-2.1-.74-3.23,0-4.06,3.3-7.37,7.37-7.37s7.37,3.3,7.37,7.37c0,1.13-.25,2.21-.74,3.22,0,.01-.01.02-.02.04-.69,1.39-2.68,4.73-4.77,8.28l-1.03,1.74c-.17.29-.48.46-.81.46Z"/>
        <path class="cls-1" d="M15.94,16.12c-1.99,0-3.6-1.62-3.6-3.6s1.62-3.6,3.6-3.6,3.6,1.62,3.6,3.6-1.62,3.6-3.6,3.6Z"/>
      </g>
    </g>
  </g>
</svg>